<?xml version="1.0" encoding="utf-8"?>
<!-- Generator: Adobe Illustrator 16.0.0, SVG Export Plug-In . SVG Version: 6.00 Build 0)  -->
<!DOCTYPE svg PUBLIC "-//W3C//DTD SVG 1.1//EN" "http://www.w3.org/Graphics/SVG/1.1/DTD/svg11.dtd">
<svg version="1.1" id="Layer_1" xmlns="http://www.w3.org/2000/svg" xmlns:xlink="http://www.w3.org/1999/xlink" x="0px" y="0px"
	 width="622.426px" height="122.874px" viewBox="92.563 337.738 622.426 122.874"
	 enable-background="new 92.563 337.738 622.426 122.874" xml:space="preserve">
<rect y="267.186" display="none" fill="none" width="800" height="265.627"/>
<g>
	<path fill="#fff" d="M253.786,387.099h-7.229l-0.125-14.958l-14.584,0.125l0.125,14.958h-7.229l-0.25-36.024h7.229l0.125,15.457
		l14.708-0.125l-0.125-15.457h7.229L253.786,387.099z"/>
	<path fill="#fff" d="M275.6,386.974c-0.25-0.499-0.374-1.122-0.624-1.87c-0.125-0.624-0.249-1.371-0.374-2.119
		c-0.748,1.247-1.745,2.368-2.867,3.241c-1.247,0.873-2.618,1.247-4.363,1.247c-2.742,0-4.986-0.748-6.482-2.119
		c-1.496-1.371-2.244-3.365-2.368-5.858c0-2.618,0.997-4.612,2.992-6.108c1.994-1.496,4.986-2.244,8.85-2.244h4.113v-2.119
		c0-1.246-0.374-2.244-0.997-2.991c-0.624-0.748-1.745-0.998-2.992-0.998c-1.122,0-2.119,0.25-2.742,0.873
		c-0.624,0.624-0.997,1.371-0.997,2.369h-6.98v-0.125c-0.125-2.244,0.873-4.238,2.867-5.858c2.119-1.621,4.737-2.493,8.103-2.493
		c3.241,0,5.858,0.748,7.853,2.368c1.995,1.621,2.992,3.864,2.992,6.98l0.125,11.094c0,1.247,0.125,2.368,0.25,3.49
		c0.25,1.122,0.499,2.244,0.873,3.241H275.6z M269.118,382.237c1.247,0,2.368-0.374,3.365-0.997
		c0.998-0.623,1.621-1.371,1.995-2.244v-3.74h-4.113c-1.496,0-2.743,0.374-3.49,1.122c-0.748,0.748-1.122,1.745-1.122,2.742
		c0,0.873,0.25,1.621,0.873,2.119C267.249,381.988,268.121,382.237,269.118,382.237z"/>
	<path fill="#fff" d="M287.317,360.174h7.229l0.125,21.19h8.85l-0.125-21.19h7.229l0.125,21.19h3.864v10.471h-7.229v-4.986
		l-19.944,0.125L287.317,360.174z"/>
	<path fill="#fff" d="M325.834,353.568h-7.23v-5.36h7.23V353.568z M326.083,386.725h-7.229l-0.125-26.675h7.229L326.083,386.725z
		"/>
	<path fill="#fff" d="M330.819,373.013c0-3.989,1.122-7.229,3.241-9.847c2.243-2.618,5.235-3.864,9.224-3.864
		c3.989,0,7.105,1.247,9.349,3.74c2.244,2.493,3.366,5.734,3.366,9.847v0.499c0,3.989-1.122,7.354-3.241,9.848
		c-2.243,2.493-5.235,3.864-9.224,3.864c-3.989,0-7.105-1.246-9.349-3.739c-2.244-2.493-3.366-5.734-3.366-9.847V373.013z
		 M338.049,373.512c0,2.493,0.499,4.362,1.371,5.858c0.873,1.496,2.244,2.244,4.114,2.244c1.869,0,3.24-0.748,4.113-2.244
		c0.872-1.496,1.246-3.49,1.246-5.858v-0.499c0-2.368-0.498-4.362-1.371-5.858c-0.872-1.496-2.243-2.244-4.113-2.244
		s-3.241,0.748-4.113,2.244c-0.873,1.496-1.247,3.49-1.247,5.858V373.512z"/>
	<path fill="#fff" d="M383.048,386.351h-7.229v-10.346h-8.851v10.346h-7.229l-0.125-26.675h7.23v10.845h8.85v-10.845h7.229
		L383.048,386.351z"/>
	<path fill="#fff" d="M403.49,386.226c-0.249-0.499-0.374-1.122-0.623-1.87c-0.125-0.623-0.25-1.371-0.374-2.119
		c-0.748,1.247-1.62,2.369-2.867,3.241c-1.246,0.873-2.617,1.246-4.362,1.246c-2.742,0-4.986-0.748-6.482-2.119
		c-1.495-1.371-2.243-3.366-2.368-5.859c0-2.617,0.997-4.612,2.992-6.107c1.994-1.496,4.985-2.244,8.85-2.244h4.113v-2.119
		c0-1.247-0.374-2.244-0.997-2.992s-1.745-0.997-2.991-0.997c-1.122,0-2.119,0.249-2.742,0.873
		c-0.624,0.623-0.997,1.371-0.997,2.368h-6.98v-0.125c-0.125-2.244,0.872-4.238,2.866-5.858c2.119-1.621,4.737-2.493,8.103-2.493
		c3.241,0,5.858,0.748,7.853,2.368c1.995,1.621,2.992,3.864,2.992,6.98l0.124,11.094c0,1.247,0.125,2.368,0.25,3.49
		c0.249,1.122,0.498,2.244,0.872,3.241H403.49z M397.009,381.49c1.246,0,2.368-0.374,3.365-0.998
		c0.997-0.623,1.62-1.371,1.994-2.244v-3.739h-4.113c-1.496,0-2.742,0.374-3.49,1.122c-0.748,0.748-1.122,1.745-1.122,2.743
		c0,0.873,0.25,1.62,0.873,2.119C395.264,381.24,396.012,381.49,397.009,381.49z"/>
	<path fill="#fff" d="M437.769,359.302l0.125,26.675h-7.229l-0.125-21.19h-5.359v5.858c0,5.235-0.873,9.1-2.493,11.592
		c-1.745,2.493-4.612,3.74-8.477,3.864h-1.122l-0.124-5.734h0.748c1.62,0,2.866-0.748,3.489-2.119
		c0.624-1.371,0.873-3.864,0.873-7.479l-0.125-11.343L437.769,359.302z"/>
	<path fill="#fff" d="M450.857,367.903h4.985c3.615,0,6.482,0.748,8.477,2.493c2.119,1.621,3.116,3.864,3.116,6.482
		c0,2.742-0.997,4.861-2.992,6.606c-1.994,1.745-4.861,2.493-8.476,2.618l-12.216,0.125l-0.125-26.675h7.23V367.903z
		 M450.857,373.512v6.98h4.985c1.496,0,2.618-0.374,3.241-0.997c0.748-0.623,1.122-1.496,1.122-2.493
		c0-0.997-0.374-1.87-1.122-2.493c-0.748-0.624-1.87-0.997-3.241-0.997H450.857z"/>
	<path fill="#fff" d="M494.609,385.728h-7.23v-10.346h-8.85v10.346H471.3l-0.125-26.55h7.229v10.845h8.851v-10.845h7.229
		L494.609,385.728z"/>
	<path fill="#fff" d="M516.049,385.603c-0.25-0.499-0.374-1.122-0.623-1.87c-0.125-0.624-0.25-1.371-0.374-2.119
		c-0.748,1.247-1.745,2.368-2.867,3.241c-1.246,0.873-2.618,1.247-4.362,1.247c-2.743,0-4.986-0.748-6.482-2.119
		s-2.243-3.365-2.368-5.858c0-2.618,0.997-4.612,2.991-6.108c1.995-1.496,4.986-2.244,8.851-2.244h4.113v-2.119
		c0-1.246-0.374-2.244-0.997-2.991c-0.623-0.748-1.745-0.998-2.991-0.998c-1.122,0-2.119,0.25-2.743,0.873
		c-0.623,0.624-0.997,1.371-0.997,2.369h-6.98v-0.125c-0.124-2.244,0.873-4.238,2.867-5.858c2.119-1.621,4.737-2.493,8.103-2.493
		c3.24,0,5.858,0.748,7.853,2.369c1.994,1.62,2.992,3.864,2.992,6.98l0.124,11.094c0,1.246,0.125,2.368,0.25,3.49
		c0.124,1.122,0.498,2.244,0.872,3.241H516.049z M509.566,380.866c1.247,0,2.369-0.374,3.366-0.997s1.62-1.371,1.994-2.244v-3.74
		h-4.113c-1.496,0-2.742,0.374-3.49,1.122s-1.122,1.745-1.122,2.742c0,0.873,0.25,1.621,0.873,2.119
		C507.697,380.617,508.569,380.866,509.566,380.866z"/>
	<path fill="#fff" d="M551.324,380.368c1.247,0,2.244-0.374,2.992-1.122c0.747-0.748,1.121-1.745,1.121-2.992h6.606v0.125
		c0.125,2.742-0.872,4.986-2.991,6.856c-2.119,1.87-4.612,2.742-7.729,2.742c-3.988,0-6.98-1.247-9.224-3.74
		c-2.119-2.493-3.241-5.734-3.241-9.723v-0.748c0-3.864,0.997-7.105,3.116-9.723s5.11-3.864,9.1-3.864
		c3.241,0,5.858,0.873,7.853,2.742s2.992,4.363,2.992,7.354v0.125h-6.606c0-1.371-0.374-2.493-1.122-3.49
		c-0.748-0.873-1.745-1.371-3.116-1.371c-1.87,0-3.116,0.748-3.989,2.244c-0.748,1.496-1.121,3.366-1.121,5.734v0.748
		c0,2.368,0.373,4.238,1.246,5.734C548.084,379.495,549.455,380.368,551.324,380.368z"/>
	<path fill="#fff" d="M589.966,358.429l0.125,26.675h-7.23l-0.124-21.19h-5.36v5.858c0,5.235-0.872,9.1-2.493,11.592
		c-1.745,2.493-4.611,3.74-8.476,3.864h-1.122l-0.125-5.734h0.748c1.621,0,2.867-0.748,3.49-2.119s0.873-3.864,0.873-7.479
		l-0.125-11.343L589.966,358.429z"/>
	<path fill="#fff" d="M606.295,373.886l0.249,1.496h0.125l4.985-17.077h7.729l-10.72,30.789c-0.748,1.87-1.745,3.49-3.116,4.861
		c-1.246,1.371-3.241,1.994-5.858,1.994c-0.623,0-1.122,0-1.745-0.125c-0.499-0.125-1.122-0.249-1.87-0.374l0.873-5.235
		c0.249,0,0.498,0.125,0.748,0.125c0.249,0,0.498,0,0.623,0c1.246,0,2.119-0.25,2.742-0.873c0.623-0.624,1.122-1.371,1.496-2.244
		l0.872-2.119l-9.598-26.675h7.729L606.295,373.886z"/>
	<path fill="#fff" d="M645.311,374.758h-1.995v10.097h-7.104v-10.097h-1.994l-5.235,10.097h-9.225l8.726-14.584l-8.352-12.215
		h9.1l5.609,10.096h1.371v-10.096h7.104v10.096h1.496l5.484-10.096h9.1l-8.227,12.34l8.85,14.459h-9.224L645.311,374.758z"/>
	<path fill="#fff" d="M675.102,357.557c3.864,0,6.855,1.247,8.975,3.74s3.24,5.734,3.365,9.847v0.499
		c0,3.989-1.122,7.354-3.24,9.848c-2.244,2.493-5.235,3.864-9.225,3.864c-3.988,0-7.104-1.246-9.349-3.739
		c-2.243-2.493-3.365-5.734-3.365-9.847v-0.499c0-0.125,0-0.125,0-0.25s0-0.125,0-0.25v-4.113c0-5.609,0.997-9.723,2.991-12.589
		c1.994-2.743,5.11-4.363,9.349-4.861c1.87-0.125,3.241-0.499,4.113-0.873c0.873-0.374,1.247-1.122,1.247-2.119h5.609v0.125
		c0.124,3.116-0.624,5.235-2.244,6.232c-1.62,1.122-4.238,1.87-8.103,2.369c-1.994,0.249-3.614,0.872-4.985,1.87
		c-1.247,0.997-1.994,2.119-2.119,3.615l0.124,0.125c0.748-0.873,1.87-1.62,2.992-2.244
		C672.483,357.806,673.73,357.557,675.102,357.557z M674.728,363.042c-1.87,0-3.241,0.748-4.113,2.244
		c-0.873,1.496-1.247,3.49-1.247,5.858v0.499c0,2.493,0.499,4.363,1.371,5.859c0.873,1.496,2.244,2.244,4.113,2.244
		c1.87,0,3.241-0.748,4.114-2.244c0.872-1.496,1.246-3.49,1.246-5.859v-0.499c0-2.368-0.499-4.363-1.371-5.858
		S676.597,363.042,674.728,363.042z"/>
	<path fill="#fff" d="M707.76,384.481c-0.25-0.499-0.374-1.122-0.624-1.87c-0.124-0.623-0.249-1.371-0.373-2.119
		c-0.748,1.247-1.621,2.369-2.867,3.241c-1.247,0.873-2.618,1.246-4.363,1.246c-2.742,0-4.985-0.748-6.481-2.119
		s-2.244-3.366-2.368-5.859c0-2.617,0.997-4.612,2.991-6.107c1.994-1.496,4.986-2.244,8.851-2.244h4.113v-2.119
		c0-1.247-0.374-2.244-0.997-2.992s-1.745-0.997-2.992-0.997c-1.121,0-2.119,0.249-2.742,0.873
		c-0.623,0.623-0.997,1.371-0.997,2.368h-6.98v-0.125c-0.124-2.244,0.873-4.238,2.867-5.858c2.119-1.621,4.736-2.493,8.103-2.493
		c3.24,0,5.858,0.748,7.853,2.368c1.994,1.621,2.991,3.864,2.991,6.98l0.125,11.094c0,1.247,0.125,2.368,0.249,3.49
		c0.25,1.122,0.499,2.244,0.873,3.241H707.76z M701.277,379.745c1.247,0,2.369-0.374,3.366-0.998
		c0.997-0.623,1.62-1.371,1.994-2.244v-3.739h-4.113c-1.496,0-2.742,0.374-3.49,1.122c-0.748,0.748-1.122,1.745-1.122,2.743
		c0,0.873,0.249,1.62,0.873,2.119C699.408,379.495,700.156,379.745,701.277,379.745z"/>
	<path fill="#fff" d="M235.712,424.493c1.371,0,2.493-0.249,3.241-0.747c0.748-0.499,1.122-1.247,1.122-2.119
		c0-0.873-0.374-1.621-1.122-2.119c-0.748-0.623-1.745-0.873-3.241-0.873c-1.371,0-2.368,0.25-3.241,0.748
		c-0.748,0.499-1.247,1.246-1.247,2.119h-6.98v-0.125c-0.125-2.368,0.873-4.362,2.992-5.857c2.119-1.496,4.737-2.244,7.978-2.244
		c3.615,0,6.482,0.623,8.601,1.994c2.119,1.371,3.241,3.24,3.241,5.733c0,1.247-0.374,2.244-1.122,3.241
		c-0.748,0.997-1.87,1.745-3.241,2.368c1.621,0.499,2.867,1.371,3.739,2.369c0.873,0.997,1.247,2.368,1.247,3.739
		c0,2.493-1.122,4.487-3.365,5.858c-2.244,1.496-5.235,2.243-8.85,2.243c-3.116,0-5.858-0.623-8.227-2.118
		c-2.244-1.371-3.366-3.49-3.241-6.108v-0.124h6.98c0,0.872,0.374,1.62,1.246,2.243s1.995,0.872,3.615,0.872
		c1.496,0,2.617-0.373,3.49-0.997c0.873-0.623,1.247-1.495,1.247-2.368c0-1.122-0.374-1.994-1.247-2.493
		c-0.873-0.498-1.994-0.747-3.615-0.747h-4.363v-4.612L235.712,424.493z"/>
	<path fill="#fff" d="M251.293,434.84L251.293,434.84h0.748c1.621,0,2.742-0.748,3.241-2.244
		c0.623-1.496,1.122-4.113,1.496-7.978l1.122-10.97l18.199-0.124l0.125,21.19h3.74v9.598h-7.23v-4.113l-15.831,0.125v4.113h-7.229
		v-9.598H251.293z M264.007,424.493c-0.249,2.244-0.499,4.238-0.873,5.859c-0.374,1.745-0.873,3.116-1.371,4.362h7.354
		l-0.125-15.457h-4.363L264.007,424.493z"/>
	<path fill="#fff" d="M282.58,426.612c0-3.988,1.122-7.229,3.241-9.847c2.244-2.618,5.235-3.864,9.224-3.864
		s7.105,1.246,9.348,3.739c2.244,2.493,3.366,5.734,3.366,9.848v0.498c0,3.989-1.122,7.354-3.241,9.848
		c-2.244,2.493-5.235,3.864-9.224,3.864s-7.105-1.247-9.349-3.739c-2.244-2.493-3.366-5.734-3.366-9.848V426.612z M289.81,427.111
		c0,2.493,0.499,4.362,1.371,5.858s2.244,2.244,4.113,2.244s3.241-0.748,4.114-2.244c0.872-1.496,1.246-3.49,1.246-5.858v-0.499
		c0-2.368-0.498-4.362-1.371-5.858c-0.872-1.496-2.244-2.244-4.113-2.244s-3.241,0.748-4.113,2.244
		c-0.873,1.496-1.247,3.49-1.247,5.858V427.111z"/>
	<path fill="#fff" d="M336.678,427.236c0,3.988-0.872,7.104-2.742,9.598c-1.869,2.368-4.362,3.614-7.604,3.614
		c-1.371,0-2.617-0.249-3.739-0.747c-1.122-0.499-1.994-1.247-2.867-2.244l0.125,12.839h-7.229l-0.25-37.021h6.482l0.498,3.116
		c0.748-1.122,1.745-2.119,2.867-2.743c1.122-0.623,2.368-0.996,3.864-0.996c3.365,0,5.858,1.246,7.729,3.863
		c1.869,2.618,2.742,5.983,2.742,10.222L336.678,427.236z M329.448,426.737c0-2.493-0.498-4.612-1.246-6.108
		c-0.873-1.62-2.119-2.367-3.864-2.367c-1.122,0-1.994,0.248-2.742,0.623c-0.748,0.498-1.371,1.121-1.745,1.869l0.124,11.717
		c0.499,0.748,0.998,1.372,1.87,1.745c0.748,0.374,1.745,0.624,2.867,0.624c1.745,0,2.991-0.748,3.864-2.119
		c0.748-1.371,1.246-3.241,1.246-5.609L329.448,426.737z"/>
	<path fill="#fff" d="M340.293,426.238c0-3.988,1.122-7.229,3.241-9.847c2.243-2.618,5.235-3.864,9.224-3.864
		c3.989,0,7.105,1.246,9.349,3.739c2.244,2.493,3.365,5.734,3.365,9.848v0.498c0,3.989-1.121,7.354-3.24,9.848
		c-2.244,2.493-5.235,3.864-9.225,3.864c-3.988,0-7.104-1.247-9.349-3.739c-2.243-2.493-3.365-5.734-3.365-9.848V426.238z
		 M347.522,426.737c0,2.493,0.499,4.362,1.371,5.858c0.873,1.496,2.244,2.244,4.113,2.244c1.87,0,3.241-0.748,4.113-2.244
		c0.873-1.496,1.247-3.49,1.247-5.858v-0.499c0-2.368-0.499-4.362-1.371-5.857c-0.873-1.496-2.244-2.244-4.113-2.244
		c-1.87,0-3.241,0.748-4.113,2.244c-0.873,1.495-1.247,3.489-1.247,5.857V426.737z"/>
	<path fill="#fff" d="M370.458,439.701l-0.125-26.676l11.219-0.124c3.615,0,6.357,0.623,8.352,1.87
		c1.994,1.246,2.991,3.115,2.991,5.609c0,1.246-0.373,2.368-1.246,3.365c-0.872,0.997-1.994,1.745-3.49,2.243
		c1.994,0.374,3.615,1.122,4.612,2.244c0.997,1.121,1.62,2.368,1.62,3.864c0,2.492-0.872,4.487-2.742,5.733
		s-4.612,1.994-8.103,1.994L370.458,439.701z M377.688,423.87h4.113c1.371,0,2.369-0.249,2.992-0.623s0.997-1.122,0.997-1.994
		c0-0.997-0.374-1.62-0.997-2.119s-1.745-0.624-3.116-0.624h-3.989V423.87z M377.688,428.482v5.609h5.734
		c1.246,0,2.243-0.249,2.867-0.748c0.623-0.499,0.872-1.122,0.872-2.119c0-0.872-0.249-1.62-0.872-2.119
		c-0.624-0.498-1.496-0.748-2.867-0.748L377.688,428.482z"/>
	<path fill="#fff" d="M402.991,410.782l-2.492,6.232h-3.615l-0.125-13.462h6.108L402.991,410.782z"/>
	<path fill="#fff" d="M427.174,412.652l0.124,26.675h-7.104v-9.349h-3.989l-5.235,9.349h-7.229l5.858-10.471
		c-1.745-0.623-3.116-1.62-4.113-2.992c-0.997-1.246-1.495-2.742-1.495-4.487c0-2.617,0.997-4.736,3.116-6.356
		c2.118-1.62,4.861-2.493,8.352-2.493L427.174,412.652z M411.094,421.751c0,0.873,0.374,1.745,1.122,2.369
		c0.748,0.623,1.745,0.997,3.116,0.997h4.736v-6.98h-4.736c-1.371,0-2.368,0.373-3.116,1.121S411.094,420.879,411.094,421.751z"/>
	<path fill="#fff" d="M458.835,419.258l0.623,2.119h0.124l7.479-18.198h7.604l-12.964,29.168
		c-0.997,2.368-2.243,4.113-3.739,5.484c-1.496,1.246-3.49,1.994-6.107,1.994c-0.997,0-1.87-0.124-2.618-0.249
		s-1.62-0.374-2.617-0.748l0.748-5.11c0.748,0.249,1.371,0.374,1.994,0.498c0.623,0.125,1.122,0.125,1.745,0.125
		c1.371,0,2.368-0.249,3.116-0.872c0.748-0.624,1.246-1.496,1.745-2.618l0.498-1.371l-12.839-26.052h7.729L458.835,419.258z"/>
	<path fill="#fff" d="M484.513,429.105h-2.743v9.972h-7.229l-0.124-26.675h7.229v10.222h2.119l6.107-10.222h9.1l-8.726,12.465
		l9.349,14.335h-9.224L484.513,429.105z"/>
	<path fill="#fff" d="M527.268,426.238c0,3.989-0.873,7.105-2.743,9.599c-1.869,2.368-4.362,3.614-7.604,3.614
		c-1.371,0-2.617-0.249-3.739-0.747c-1.122-0.499-1.994-1.247-2.867-2.244l0.125,12.839h-7.229l-0.249-37.021h6.481l0.498,3.117
		c0.748-1.122,1.745-2.119,2.867-2.742s2.368-0.998,3.864-0.998c3.365,0,5.858,1.247,7.729,3.865
		c1.869,2.617,2.742,5.982,2.742,10.221L527.268,426.238z M520.037,425.74c0-2.493-0.498-4.612-1.246-6.107
		c-0.873-1.621-2.119-2.369-3.864-2.369c-1.122,0-1.994,0.25-2.742,0.623c-0.748,0.499-1.371,1.122-1.745,1.87l0.125,11.717
		c0.498,0.748,0.997,1.371,1.869,1.745c0.748,0.374,1.745,0.624,2.867,0.624c1.745,0,2.991-0.748,3.864-2.119
		c0.748-1.371,1.246-3.241,1.246-5.609L520.037,425.74z"/>
	<path fill="#fff" d="M547.71,438.704c-0.25-0.499-0.374-1.122-0.624-1.87c-0.124-0.623-0.249-1.371-0.373-2.119
		c-0.748,1.246-1.621,2.368-2.867,3.241c-1.247,0.872-2.618,1.246-4.363,1.246c-2.742,0-4.985-0.748-6.481-2.119
		s-2.244-3.365-2.244-5.858c0-2.617,0.998-4.612,2.992-6.107c1.994-1.496,4.985-2.244,8.85-2.244h4.114v-2.119
		c0-1.246-0.374-2.244-0.998-2.991c-0.623-0.748-1.745-0.997-2.991-0.997c-1.122,0-2.119,0.249-2.742,0.872
		c-0.623,0.624-0.997,1.371-0.997,2.368h-6.98v-0.124c-0.125-2.244,0.872-4.238,2.867-5.858c2.119-1.621,4.736-2.493,8.102-2.493
		c3.241,0,5.858,0.747,7.854,2.368c1.994,1.621,2.991,3.864,2.991,6.98v11.094c0,1.246,0.125,2.368,0.249,3.49
		c0.25,1.122,0.499,2.243,0.873,3.241H547.71z M541.228,433.967c1.247,0,2.368-0.374,3.366-0.997
		c0.997-0.623,1.62-1.371,1.994-2.244v-3.739h-4.113c-1.496,0-2.742,0.374-3.49,1.122s-1.122,1.745-1.122,2.742
		c0,0.873,0.249,1.62,0.873,2.119C539.358,433.718,540.105,433.967,541.228,433.967z"/>
	<path fill="#fff" d="M560.424,407.541h-6.98v-4.986h6.98V407.541z M567.03,438.579h-7.229l-0.125-26.675h7.229L567.03,438.579z
		 M573.263,407.416h-6.98v-4.985h6.98V407.416z"/>
	<path fill="#fff" d="M596.572,438.454h-7.229v-10.346h-8.851v10.346h-7.229l-0.125-26.675h7.23v10.845h8.85v-10.845h7.229
		L596.572,438.454z"/>
	<path fill="#fff" d="M618.261,411.53h7.23l0.124,26.675h-7.229l-0.125-16.329h-0.124l-8.601,16.329h-7.23l-0.124-26.675h7.229
		l0.125,16.204h0.124L618.261,411.53z"/>
</g>
<path fill="#216EB6" d="M193.456,352.072c-0.125-1.994-1.371-3.864-3.241-4.612c-6.606-2.992-23.808-9.723-46.868-9.723
	c-24.057,0-40.636,6.606-46.868,9.598c-1.745,0.873-2.991,2.618-3.116,4.612c-0.873,11.218-2.992,49.735,7.105,69.679
	c10.221,20.068,34.279,34.652,41.134,38.517c1.122,0.623,2.493,0.623,3.615,0c6.855-3.864,30.913-18.448,41.134-38.517
	C196.447,401.808,194.329,363.416,193.456,352.072z"/>
<path fill="#FFFFFF" d="M153.194,381.365v-18.947c0-0.499-0.374-0.872-0.873-0.872h-17.95c-0.499,0-0.873,0.374-0.873,0.872v18.822
	h-18.822c-0.499,0-0.873,0.374-0.873,0.873v17.95c0,0.498,0.374,0.873,0.873,0.873H133.5v18.821c0,0.499,0.374,0.872,0.873,0.872
	h17.95c0.499,0,0.873-0.373,0.873-0.872v-18.821h18.822c0.499,0,0.873-0.375,0.873-0.873v-17.825c0-0.499-0.374-0.873-0.873-0.873
	H153.194z"/>
</svg>
