<svg width="183" height="37" viewBox="0 0 183 37" fill="none" xmlns="http://www.w3.org/2000/svg">
<path d="M29.9025 0H7.19789C3.2218 0 0 3.21359 0 7.17954V29.8205C0 33.7864 3.2218 37 7.19789 37H29.8967C33.8728 37 37.0946 33.7864 37.0946 29.8205V7.17954C37.1004 3.21359 33.8786 0 29.9025 0Z" fill="#E94220"/>
<path fill-rule="evenodd" clip-rule="evenodd" d="M31.043 10.1543C31.3471 10.4634 31.5225 10.8775 31.5225 11.3149H31.5283V13.7178H5.57848V9.27358C5.57848 8.83616 5.7539 8.41624 6.0638 8.10713C6.3737 7.79802 6.7947 7.62305 7.23324 7.62305H14.1914C14.5071 7.62305 14.8229 7.71053 15.0919 7.868C15.3608 8.02547 15.5889 8.25877 15.7409 8.53288L16.3724 9.67601H29.8794C30.3179 9.67601 30.7331 9.84515 31.043 10.1543ZM6.31523 12.9771H30.774V11.3149C30.774 11.0816 30.6805 10.8541 30.5109 10.685C30.3472 10.5159 30.1191 10.4225 29.8794 10.4225H15.9397L15.0919 8.89448C15.0042 8.73701 14.8755 8.60287 14.7176 8.50955C14.5598 8.41624 14.3785 8.36958 14.1972 8.36958H7.23324C6.9935 8.36958 6.75961 8.46873 6.59004 8.63786C6.42048 8.807 6.32107 9.04029 6.32107 9.27942L6.31523 12.9771ZM31.5337 20.8039H33.2353V21.5446H31.5337V23.2884H30.7853V21.5446H29.0545V20.8039H30.7853V19.0425H31.5337V20.8039ZM31.5338 15.304H30.7853V17.3161H31.5338V15.304ZM30.569 28.4208C30.7093 28.2808 30.7853 28.0942 30.7853 27.8959V25.0206H31.5338V27.9017C31.5338 28.2925 31.3759 28.6716 31.0952 28.9515C30.8146 29.2315 30.4404 29.3889 30.0427 29.3889H7.06329C6.66568 29.3889 6.28561 29.2315 6.00495 28.9515C5.72428 28.6716 5.56641 28.2925 5.56641 27.8959V15.304H6.32069V27.8959C6.32069 28.0942 6.39671 28.2808 6.53704 28.4208C6.67737 28.5608 6.86448 28.6366 7.06329 28.6366H30.0427C30.2415 28.6366 30.4287 28.5608 30.569 28.4208ZM18.4887 24.9567V17.8938H16.869L14.9511 21.0316L13.0274 17.8938H11.4077V24.9509H13.0274V20.8449L14.8576 23.8427H15.0388L16.869 20.8508V24.9567H18.4887ZM24.7159 20.2031C24.4002 19.6549 23.7979 19.3341 23.0729 19.3341C21.8216 19.3341 21.003 20.1856 21.003 21.4454C21.003 22.7051 21.8157 23.545 23.067 23.545C23.7862 23.545 24.4002 23.2184 24.7101 22.676L26.1076 23.4808C25.7918 23.9941 25.3416 24.414 24.8095 24.6998C24.2832 24.9856 23.681 25.1314 23.0787 25.1197C20.9445 25.108 19.395 23.51 19.395 21.4337C19.395 19.3516 20.9445 17.7594 23.0787 17.7594C23.681 17.7535 24.2774 17.8993 24.8095 18.1851C25.3416 18.4709 25.7918 18.8908 26.1134 19.3982L24.7159 20.2031Z" fill="#ECF2F2"/>
<path d="M55.0434 25.6484H56.9258L62.0512 13.8854V26.327H64.3418V10.4922H61.2121L55.996 22.2552L50.7571 10.4922H47.6047V26.327H49.8953V13.8854L55.0434 25.6484Z" fill="#E94220"/>
<path d="M78.3146 23.0695L76.1827 22.866C75.8425 23.816 74.6406 24.4494 73.2118 24.4494C71.216 24.4494 69.9007 23.2505 69.6512 21.373H78.496C78.8135 17.5047 76.5683 14.8581 73.0304 14.8581C69.6512 14.8581 67.3152 17.2333 67.3152 20.6717C67.3152 24.1101 69.6739 26.4853 73.1437 26.4853C75.7292 26.4853 77.7476 25.1733 78.3146 23.0695ZM69.7192 19.6085C70.0821 17.9345 71.3294 16.894 73.0757 16.894C74.89 16.894 76.1601 18.0024 76.2734 19.6085H69.7192Z" fill="#E94220"/>
<path d="M89.4501 26.327H91.7407V10.4922H89.4501V15.8082C88.5656 15.1974 87.4544 14.8354 86.207 14.8354C82.8732 14.8354 80.5373 17.2333 80.5373 20.7169C80.5373 24.1101 82.7598 26.508 85.8668 26.508C87.341 26.508 88.5883 25.9651 89.4501 25.0602V26.327ZM89.4501 18.7037V21.3277C89.4501 23.1148 88.2028 24.3363 86.3431 24.3363C84.3247 24.3363 82.9412 22.866 82.9412 20.6717C82.9412 18.4775 84.37 17.0071 86.4565 17.0071C87.8399 17.0071 88.9739 17.6405 89.4501 18.7037Z" fill="#E94220"/>
<path d="M105.332 22.5493L103.109 22.3683C102.724 23.5672 101.59 24.3363 100.161 24.3363C98.1879 24.3363 96.8498 22.866 96.8498 20.6717C96.8498 18.4548 98.1879 17.0071 100.161 17.0071C101.59 17.0071 102.724 17.7536 103.109 18.9751L105.332 18.7715C104.719 16.3284 102.746 14.8354 100.116 14.8354C96.7818 14.8354 94.4459 17.2107 94.4459 20.6717C94.4459 24.1101 96.7818 26.508 100.116 26.508C102.746 26.508 104.719 25.015 105.332 22.5493Z" fill="#E94220"/>
<path d="M118.335 23.0695L116.203 22.866C115.863 23.816 114.661 24.4494 113.232 24.4494C111.236 24.4494 109.921 23.2505 109.672 21.373H118.516C118.834 17.5047 116.589 14.8581 113.051 14.8581C109.672 14.8581 107.336 17.2333 107.336 20.6717C107.336 24.1101 109.694 26.4853 113.164 26.4853C115.75 26.4853 117.768 25.1733 118.335 23.0695ZM109.74 19.6085C110.103 17.9345 111.35 16.894 113.096 16.894C114.91 16.894 116.18 18.0024 116.294 19.6085H109.74Z" fill="#E94220"/>
<path d="M123.551 15.0164H121.261V26.327H123.551V19.9478C123.551 18.1381 124.731 16.9392 126.477 16.9392C128.064 16.9392 129.062 17.8893 129.062 19.3823V26.327H131.353V18.9751C131.353 16.4868 129.629 14.8354 127.089 14.8354C125.638 14.8354 124.413 15.3784 123.551 16.2832V15.0164Z" fill="#E94220"/>
<path d="M135.432 24.2458C135.432 25.6257 136.475 26.508 138.153 26.508C138.856 26.508 139.741 26.3496 140.557 26.1008L140.398 24.3137C139.854 24.4721 139.355 24.5625 138.992 24.5625C138.176 24.5625 137.699 24.178 137.699 23.5446V16.9166H140.33V15.0164H137.699V12.3019H135.976C135.976 14.6545 135.522 15.1974 133.595 15.1974V16.9166H135.432V24.2458Z" fill="#E94220"/>
<path d="M153.594 23.0695L151.462 22.866C151.122 23.816 149.92 24.4494 148.491 24.4494C146.495 24.4494 145.18 23.2505 144.93 21.373H153.775C154.093 17.5047 151.847 14.8581 148.31 14.8581C144.93 14.8581 142.594 17.2333 142.594 20.6717C142.594 24.1101 144.953 26.4853 148.423 26.4853C151.008 26.4853 153.027 25.1733 153.594 23.0695ZM144.998 19.6085C145.361 17.9345 146.609 16.894 148.355 16.894C150.169 16.894 151.439 18.0024 151.553 19.6085H144.998Z" fill="#E94220"/>
<path d="M163.867 15.1069C163.505 14.9259 162.983 14.8354 162.439 14.8354C160.942 14.8354 159.695 15.4688 158.81 16.5094V15.0164H156.519V26.327H158.81V20.6717C158.81 18.4775 160.148 16.9392 162.121 16.9392C162.529 16.9392 162.87 17.0071 163.21 17.1202L163.867 15.1069Z" fill="#E94220"/>
<path d="M166.402 19.3597H170.348V23.2958H172.253V19.3597H176.199V17.4595H172.253V13.5234H170.348V17.4595H166.402V19.3597Z" fill="#E94220"/>
</svg>
